<svg width="75" height="75" viewBox="0 0 75 75" fill="none" xmlns="http://www.w3.org/2000/svg">
<path d="M15.625 34.375L20.3125 20.3125H54.6875L59.375 34.375M54.6875 50C53.4443 50 52.252 49.5061 51.3729 48.6271C50.4939 47.748 50 46.5557 50 45.3125C50 44.0693 50.4939 42.877 51.3729 41.9979C52.252 41.1189 53.4443 40.625 54.6875 40.625C55.9307 40.625 57.123 41.1189 58.0021 41.9979C58.8811 42.877 59.375 44.0693 59.375 45.3125C59.375 46.5557 58.8811 47.748 58.0021 48.6271C57.123 49.5061 55.9307 50 54.6875 50ZM20.3125 50C19.0693 50 17.877 49.5061 16.9979 48.6271C16.1189 47.748 15.625 46.5557 15.625 45.3125C15.625 44.0693 16.1189 42.877 16.9979 41.9979C17.877 41.1189 19.0693 40.625 20.3125 40.625C21.5557 40.625 22.748 41.1189 23.6271 41.9979C24.5061 42.877 25 44.0693 25 45.3125C25 46.5557 24.5061 47.748 23.6271 48.6271C22.748 49.5061 21.5557 50 20.3125 50ZM59.125 18.75C58.5 16.9375 56.75 15.625 54.6875 15.625H20.3125C18.25 15.625 16.5 16.9375 15.875 18.75L9.375 37.5V62.5C9.375 63.3288 9.70424 64.1237 10.2903 64.7097C10.8763 65.2958 11.6712 65.625 12.5 65.625H15.625C16.4538 65.625 17.2487 65.2958 17.8347 64.7097C18.4208 64.1237 18.75 63.3288 18.75 62.5V59.375H56.25V62.5C56.25 63.3288 56.5792 64.1237 57.1653 64.7097C57.7513 65.2958 58.5462 65.625 59.375 65.625H62.5C63.3288 65.625 64.1237 65.2958 64.7097 64.7097C65.2958 64.1237 65.625 63.3288 65.625 62.5V37.5L59.125 18.75Z" fill="black"/>
</svg>
