<?xml version="1.0" encoding="UTF-8"?>
<svg id="_レイヤー_2" data-name="レイヤー 2" xmlns="http://www.w3.org/2000/svg" viewBox="0 0 396.44 64.42">
  <g id="_レイヤー_1-2" data-name="レイヤー 1">
    <g>
      <g>
        <path d="M76.53,25.88c-.43-.07-.8-.1-1.55-.12-.03.35-.06.7-.07,1.33.29.01,1,.38,1.26.61.36.32.36.9.12,1.22-.32.07-.58-.09-.77-.46-.15-.29-.46-.78-.61-1.1-.04,2.1-.03,5.25,0,6.67-.25.17-.77.03-1.06-.25,0-1.22,0-3.8.07-5.55-.51.91-.87,1.54-1.09,1.87-.43.65-.9,1.17-1.38,1.57.81-1.87,1.77-3.97,2.23-5.83-.38.01-1.31.15-1.52.22,0,0-.49-.06-.39-.48.06-.23.36-.35.91-.43.38-.06.91-.09,1.2-.13.01-.68.03-1.88.15-2.9.13-.03.29-.04.39-.04.48,0,.78.33.71.97-.06.52-.07,1.23-.12,1.97,0,0,.81.03.96.06.42.07.62.22.62.46,0,.09-.07.35-.07.35ZM83.37,31.8c-.86-.75-1.62-1.9-2.32-3.44-.03,1.52.07,4.12.1,5.63-.19.09-.35.13-.51.13-.48,0-.7-.32-.71-.94-.03-.93,0-4.1,0-4.1-.29.49-.64,1.15-1.03,1.54-.68.68-2.39,1.62-2.99,1.51,1.23-.88,2.74-2.52,3.32-4.03-.46-.03-1.26.13-1.74.22-.41.07-.62-.36-.62-.77.72-.16,1.59-.23,2.99-.32,0-.54.01-1.39.03-1.97-.32.01-.88.03-1.2.09l-.22-.33c-.54.87-1.04,1.44-1.52,1.71.38-1.26.8-2.54.93-3.84.29-.12.94.15,1.04.45-.06.35-.16.83-.29,1.19.36-.01.9-.07,1.28-.06,0-.68.09-1.9.22-2.52.49.01.93.16,1.16.43-.16.67-.19,1.64-.19,2.04.39.01.87.03,1.17.09.45.09.65.32.58.73-.1.1-.22.2-.35.16-.35-.1-.97-.16-1.42-.14l-.04,1.96c1.04,0,2.15.06,2.75.25.09.16.07.43-.04.7-.62-.07-1.44-.17-2.49-.19.58.84,1.67,1.86,3.28,3.03-.43.25-.93.57-1.16.83Z"/>
        <path d="M97.31,34.2c-2.36-.74-3.47-5.74-3.83-8.87-1.67.06-3.58.3-4.6.48-.83.15-1.3.26-1.46.26-.46,0-.78-.22-.94-.67.26-.29.74-.39,1.09-.45,1.17-.19,4.13-.49,5.86-.51-.07-.98-.13-2.38.15-2.96.41-.1,1.06.09,1.2.35-.03.59-.04,1.52.06,2.61.83.01,2.36.07,3.05.29,0,0,.25.25.17.46-.06.17-.23.36-.72.3-.87-.1-1.42-.17-2.45-.2.2,2.58.84,5.31,2.19,6.92.68-.46,1.02-1.78,1.02-1.78.2.8-.17,3.32-.77,3.77ZM88.18,33.56c-.55-.06-.8-.93-.65-1.41.68-.1,1.36-.22,2.12-.43-.14-.86-.17-1.83-.07-2.91-.59.12-.93.23-1.2.25-.46.01-.71-.57-.68-.87,1.33-.33,3.2-.58,4.65-.45.27.17.36.67.04.96-.57-.07-1.28-.04-1.97-.01l.57.41c-.09.7-.09,1.51-.03,2.23.87-.19,2.25-.77,2.25-.77-.61,1.45-3.54,2.71-5.02,3.02ZM96.63,23.72c-.68-.03-.87-1.19-1.12-1.6,0,0,1.56.09,1.68.93.04.35-.2.68-.57.67Z"/>
        <path d="M84.49,43.26c-.3.32-.55.72-1.03.72-.29,0-.51-.12-.74-.27-1.42-.93-3.65-3.58-4.73-4.9-.94,1.61-3.75,4.1-5.44,4.94-.45.16-.9.32-1.38.39.12-.19.3-.39.58-.62,1.84-1.61,4.46-4.41,5.55-6.58.36.13.62.31.77.54.15.23.17.57.07.83,1.17,1.32,5.36,4.39,6.76,4.68-.1.16-.26.19-.42.28ZM81.98,45.99c-1.55-.15-2.99-.31-4.68-.22.19.23.27.51.27.78,0,.25-.12.62-.33,1.13-.25.54-.38.93-.39,1.19.65.04,1.28-.23,1.93-.23.36,0,.59.1.78.3.1-.39.1-.8-.06-1.22.46-.19.83-.12,1.07.13.29.27.43.77.43,1.26,0,.58-.23,1.49-.97,1.49-.29,0-.54-.39-.51-1.28-.7.27-1.72.42-2.8.75-.25.25-.54.23-.77.09-.26-.16-.45-.49-.43-.83.04-.89.71-2.67,1.04-3.54-.74.07-1.36.15-2.58.48-.3-.06-.58-.25-.67-.49.01-.32.19-.54.49-.67,2.25-.39,4.58-.33,6.84-.33.58,0,1.51-.01,1.68.7.06.25-.06.43-.36.49ZM80.28,43.16c-1.14-.15-3.36-.12-4.58.38-.48-.26-.65-.58-.56-1.1.91-.39,3.84-.58,4.86-.31.39.12.61.39.62.84-.01.13-.17.19-.33.19Z"/>
        <path d="M89.82,43.7s.29.17.33.39c-.07,1.46-.03,3.68.04,5.19-.12.3-.42.59-.86.59-.22-.22-.41-.58-.43-1.1-.09-1.45-.07-2.89-.01-4.22-1.06.8-2.23,1.29-2.97,1.48,0,0,3.57-3.02,4.64-5.19-.84-.33-2.65-.07-3.55.25-.23-.1-.7-.39-.68-.71.01-.2.25-.35.72-.45.52-.12,1.39-.17,2.06-.19,0-.68-.12-1.44.03-2.13.43-.09,1.07.09,1.19.57.07.3-.07,1.03-.12,1.59,1,.15,1.65.48,1.99.97-.39.88-1.61,2.29-2.38,2.96ZM90.44,43.87s.42-.2.81-.16c.51.06.86.38.75.94-.59.48-1.62.03-1.56-.78ZM98.14,49.19c-1.62-.33-4.26-.51-6.8.04-.32-.07-.55-.33-.52-.86.45-.23,2.09-.39,3.23-.45.03-1.02.07-4.02.12-5.39-.62.06-1.02.16-1.45.25-.3-.07-.51-.33-.41-.7.06-.19.19-.32.42-.38.36-.07.88-.15,1.45-.19.04-1.17.1-2.71.32-3.2.42-.04.78.1,1.17.46,0,0,0,1.64-.03,2.68.64.03,1.17.1,1.56.27.29.13.46.35.39.64-.06.22-.3.3-.7.27-.35-.03-.7-.17-1.29-.19-.04,1.71-.17,5.47-.17,5.47.84.03,1.72.13,2.29.27.36.1.57.3.65.62-.03.29-.25.36-.25.36Z"/>
      </g>
      <g>
        <path d="M126.44,43.97c-1.1.77-3.21,1.04-4.34,1.19l3.6-2.74c.89-1.79,1.49-3.99,1.25-6.87-.12-1.31-.33-3.99-1.43-4.58-.74-.42-2.02-.3-2.89-.15-3.04.54-5.98,2.92-7.59,4.73.03,2.68.39,7.14.09,10.89l-.92.36c-1.1-.98-1.9-2.47-2.47-3.84l-1.1-1.1,2.68,1.1c0-1.19.03-4.58-.03-5.92-1.49,1.67-3.27,4.14-4.19,5.39-.57-.06-1.01-.98-1.28-1.46,1.37-1.96,3.75-4.88,5.36-6.72,0,0,.12-2.26.12-3.33-.92-.09-2.2.89-3.33.66-1.04-.21-1.61-1.73-.92-2.56l1.07.51c.74-.09,2.14-.3,3.27-.33.06-1.04.09-2.8,0-3.99l-.45-1.67c.63-.71,2.47.09,2.8,1.04-.18,1.22-.56,2.65-.68,4.1.51.18,1.16.51,1.55.92-.71.77-1.55,2.17-1.55,3.99,1.46-1.61,4.26-3.87,6.9-4.49,2.02-.48,4.76.3,5.92,2.05,2.32,3.54,1.87,10.47-1.43,12.82Z"/>
        <path d="M151.98,30.49c0,2.02-.57,5.65-.57,5.65.18.8.36,2.14.39,3.18.06,3.45-3.13,5.77-6.1,6.78-1.22.42-3.12.98-4.14.56,4.31-2.05,7.59-4.02,8.09-7.08,0,0-.92.65-1.9.98-1.99.65-4.25-.33-4.88-1.67-.03-3.12,2.41-5.36,4.97-5.24.56.03,1.16.18,1.72.45.15-.92.12-2.62.09-3.36-2.53.09-9.43.71-11.25-.33,0,0,.51-1.49,1.43-1.58,2.38.09,7.82.06,9.82,0,0-1.52.15-4.14-.92-5.36.48-.74,2.38-.86,2.71-.42.71.98.63,3.57.54,5.59,1.31-.09,3.72-.33,4.94-.42.92-.06,1.37,1.67,1.37,1.67-1.61.24-5.03.51-6.31.56ZM147.19,35.46c-.92.27-1.4,1.25-1.4,2.17,0,1.1.68,2.08,2.14,1.55,1.01-.39,1.37-2.08,1.31-3.21-.57-.63-1.55-.65-2.05-.51ZM156.83,26.45c-.42-.74-.83-2.2-1.22-2.97.89-.24,1.99.59,2.41,1.4.36.71.09,1.55-1.19,1.58ZM160.7,25.5c-.98-.18-1.61-1.84-2.11-2.74,1.22-.09,2.5.42,2.8,1.7.09.42-.33.95-.68,1.04Z"/>
        <path d="M182.94,46.98c-.95,0-1.55-1.31-2.08-1.99-1.43-1.84-4.05-4.1-6.13-5.8-1.1-.89-2.23-1.55-3.45-1.82-.33-.42-.45-1.01-.24-1.81.21-.77,1.88-2.11,2.65-2.97,2.23-2.41,4.64-4.94,6.58-7.53.36-.45,1.34-2.05,1.34-2.05,1.19.33,1.64,1.55,1.73,2.23-2.62,3.36-7.5,7.91-10.32,10.83,2.38,1.61,5.65,3.48,8,5.5.8.68,2.41,2.14,2.92,2.89.48.71-.15,2.53-.98,2.53Z"/>
        <path d="M211.25,45.52c-1.7.54-3.48.86-5.5.56,0,0,3.69-1.37,5.5-2.35,1.61-.89,3.81-2.68,3.81-5.12,0-1.19-.33-2.2-1.22-2.8-1.61-.45-3.21-.33-4.7.12-2.53.74-4.34,2.26-6.4,3.81-.77-.74-1.7-2.26-1.7-2.26-.24-2.17.03-6.93.59-8.9,1.01-.24,1.79.18,2.35.8-.48,2.32-.95,4.61-.74,7.35,1.96-.95,3.96-1.93,6.9-2.32,3.33-.45,7.41.56,7.35,4.22-.06,3.9-2.83,5.77-6.25,6.87ZM207,28.17l1.25-1.04c-1.55-.45-3.57-1.04-3.69-3.24l.27-.24c1.37,1.19,3.6,1.58,6.1,1.67.33.42.71,1.07.56,1.49-1.1.65-3,1.19-4.49,1.37Z"/>
        <path d="M244.05,45.04c-1.1.74-3.54,1.61-5.33,1.61-2.56,0-4.28-.98-5.21-2.68-1.13-2.05-1.34-5.09-1.19-8.3.12-2.56.45-5.12.59-7.68.12-1.79-.09-3.93-.27-5.06l1.87.36c1.58,1.07,1.16,2.65.8,5.18-.48,3.42-1.01,7.29-.98,10.98.03,2.71.51,5.68,3.99,5.68,2.41,0,4.7-1.93,5.68-3.69.74-1.34,1.07-2.86,1.07-4.37,0-2.05-.74-4.05-.74-4.05,1.67,1.31,2.62,3.42,2.65,5.56.03,2.59-1.13,5.21-2.95,6.46Z"/>
        <path d="M261.39,38.68c-1.52-2.11-1.19-10.41-.45-12.67.74.18,2.2.68,2.2.68-.21,2.65-.45,7.32.18,10.92-.36.42-1.93,1.07-1.93,1.07ZM274.6,26.68c-.03,6.84-1.31,11.84-2.8,15.35-.89,2.14-2.32,3.69-3.99,4.76,1.1-3.21,2.5-6.61,3.18-10.65.51-3,.77-7.11.74-9.7l2.86.24Z"/>
        <path d="M291.84,46.11l2.02-2.38c3.3-3.9,7.53-9.73,9.28-14.97-3.33-.45-9.28-.18-13.03.83-.39-.27-1.01-1.16-.92-1.93,2.5-1.01,14.04-1.73,17.43-.06-2.14,7.32-10.06,17.61-14.79,18.51Z"/>
        <path d="M330.56,34.36c-.03,2.11.03,5.89-.21,8.48-.12,1.34-.62,2.68-1.84,3.06-.45-.98-1.25-1.7-2.35-2.17l2.08-.12c.39-2.38.3-6.49.27-7.17-1.4,2.38-4.97,5.47-7.62,6.19l.83-1.04c2.02-2.05,4.28-4.91,6.04-7.2-2.32.06-6.52.54-8.15.86-.39-.42-.36-1.7-.36-1.7,1.87-.27,6.78-.62,9.19-.65-.03-1.43-.15-3.48-.09-4.61.62.03,1.31,0,1.9.27.18,1.16.27,3.03.27,4.25,1.16.03,2.41.03,3.57.24.77.15.8.71.42,1.49-1.31-.12-2.56-.21-3.96-.18Z"/>
        <path d="M349.17,35.37c-.24-.03-1.13.48-1.13.48-.77-.39-1.16-2.05-.8-2.86,5.83-.71,13.42-.66,19.46,0,.56.83.74,1.76,0,2.2-3.63-.09-14.37-.39-17.52.18Z"/>
        <path d="M394.83,44.51c-.63-1.07-1.49-3.15-1.99-4.55-3.09,1.58-8.84,3.42-13.45,3.96l-1.58-1.49c2.32-5.41,4.28-11.19,6.37-16.84.6.24,1.7.39,2.44.68-.36,3.03-4.02,11.84-7.23,15.02,0,0,1.99-.21,3.06-.36,3.33-.45,7.02-.86,10.23-1.4-.63-1.55-1.61-3.6-2.08-5.68,2.11,1.16,5.33,6.04,5.8,8.51.27,1.37-1.07,3.01-1.58,2.14Z"/>
      </g>
    </g>
    <g id="uuid-53ae05cc-66c3-43dc-ad85-bb17337bffaa" data-name=" レイヤー 1-2">
      <path d="M12.36,16.36l1.05-5.27c.21-.9.21-1.81-.07-2.49l-.63-1.81c-.49-1.36-.42-2.64.07-4.07l1.33-2.03c.49-.6,1.12-.83,1.75-.6,3.49,1.51,6.36,3.99,8.52,7.31.91,1.36,1.12,3.01.63,4.75-.49,1.66-1.05,3.01-1.82,4.22,1.26,1.36,2.51,3.01,3.56,4.97.21.68.28,1.28.07,1.88-.21.53-.49.98-.98,1.36-2.38,1.21-4.19,2.71-5.24,4.75,4.54-2.03,9.43-3.39,14.53-4.22,3.98-.68,7.96-.38,11.88.9,2.65.75,4.89,2.33,6.64,4.59,1.61,2.03,2.72,4.29,3.28,6.7,1.05,3.77.91,7.61-.35,11.45-1.47,4.82-4.33,8.36-8.66,10.77-4.54,2.26-9.71,3.54-15.37,3.69,5.31-4.74,9.57-10.02,12.85-15.82,1.12-2.11,1.75-4.44,1.96-6.93.21-1.66-.07-3.46-.77-5.12-.63-1.73-1.75-2.79-3.21-3.39-2.79-1.21-5.66-1.05-8.52.45-6.01,2.71-11.67,5.95-16.97,9.72-.63,4.59-.63,9.42.07,14.46.35,2.41.07,4.75-.84,6.93-.21.53-.56.83-1.05.83-.42.15-.91.08-1.26-.15-1.54-.98-2.51-2.26-3.07-3.77-1.47-4.07-2.24-8.06-2.31-11.82l-1.82,1.58c-.63.45-1.33.6-2.17.38l-1.05-.3c-.7-.3-1.4-.9-1.89-1.66-.91-1.58-1.61-3.09-2.24-4.59-.56-1.81-.21-3.54.91-5.05,3.35-3.84,6.22-7.83,8.66-11.9-.98.38-2.17,1.05-3.49,1.96-1.12.68-2.24.75-3.35.23-.98-.3-1.75-1.05-2.31-2.18,3.07-4.74,6.92-8.28,11.67-10.69v-.02h0Z"/>
      <path d="M25.27,48.02c-.94.73-1.95.94-2.99.61-1.14-.37-2.1-1.04-2.92-2.01-.35-.4-.44-.88-.3-1.46l.3-.82c.2-.27.44-.37.77-.21.59.37,1.19.46,1.85.33l7.73-2.07c.96-.3,1.93-.46,2.94-.52,0-1.07-.07-2.13-.2-3.17l-.25-.18c-.15-.18-.27-.37-.37-.64-.05-.33,0-.64.15-.91.37-.43.74-.73,1.21-.88.42-.12.74-.03,1.06.27.27.21.47.52.59.82.15.27.22.61.22.94.12,1.28.17,2.47.15,3.59.32-.03.64.03.99.18.15.03.3,0,.42-.09l.37-.3c.22-.15.42-.18.59-.06.72.55,1.41,1.25,2.1,2.1.17.21.25.55.2.94-.05.15-.12.33-.25.52-.3.37-.62.46-.96.3-.07,0-.17-.06-.35-.15-.17-.09-.27-.15-.35-.21-.12-.09-.25-.15-.47-.15-.52-.09-1.21-.15-2.05-.18.05,2.74-.02,5.45-.2,8.13-.15,1.28-.49,2.44-1.04,3.47-.22.4-.49.73-.79.97-.35,1.71-1.11,3.2-2.3,4.45-.07-1.83-.02-3.38.12-4.78-1.21-.55-2.27-1.37-3.16-2.5-.42-.46-.64-.97-.77-1.61-.3-1.31-.35-2.62-.12-3.9.02-.21.15-.43.3-.61.2-.18.42-.24.67-.15,1.51.09,2.79.73,3.88,1.95.27-1.8.47-3.53.57-5.15-2.64.43-5.11,1.46-7.36,3.14,0,0,.02,0,.02,0ZM28.48,50.28s-.02.03-.02.06c.32,1.46,1.11,2.41,2.3,2.86.02,0,.05-.03.07-.09.02-.03.05-.03.02-.06-.4-1.4-1.21-2.31-2.32-2.8-.02-.03-.02,0-.05.03ZM35.74,37.21c.32.12.57.24.74.33.3-.15.59-.37.89-.67.05-.09.1-.18.12-.3l.02-.3c0-.12.05-.24.15-.37.12-.09.25-.09.32-.06.22.03.42.12.54.3.74.64,1.31,1.49,1.63,2.59.1.27.07.55-.07.73-.07.21-.25.37-.44.4-.22.12-.4.06-.57-.21-.49-.46-.94-1.04-1.26-1.68-.02-.03-.05-.06-.07-.06s-.07,0-.1.03l-.15.49c.22.4.37.79.47,1.22.05.27.05.58-.02.88-.02.37-.15.58-.4.61-.2.15-.42.09-.64-.12-.72-.79-1.28-1.74-1.73-2.89-.07-.27-.12-.52-.12-.73.25-.18.49-.24.69-.18h0Z"/>
    </g>
  </g>
</svg>