<?xml version="1.0" encoding="UTF-8"?>
<svg id="_レイヤー_2" data-name="レイヤー 2" xmlns="http://www.w3.org/2000/svg" viewBox="0 0 57.63 64.42">
  <g id="_レイヤー_1-2" data-name=" レイヤー 1">
    <path d="M12.36,16.36l1.05-5.27c.21-.9.21-1.81-.07-2.49l-.63-1.81c-.49-1.36-.42-2.64.07-4.07l1.33-2.03c.49-.6,1.12-.83,1.75-.6,3.49,1.51,6.36,3.99,8.52,7.31.91,1.36,1.12,3.01.63,4.75-.49,1.66-1.05,3.01-1.82,4.22,1.26,1.36,2.51,3.01,3.56,4.97.21.68.28,1.28.07,1.88-.21.53-.49.98-.98,1.36-2.38,1.21-4.19,2.71-5.24,4.75,4.54-2.03,9.43-3.39,14.53-4.22,3.98-.68,7.96-.38,11.88.9,2.65.75,4.89,2.33,6.64,4.59,1.61,2.03,2.72,4.29,3.28,6.7,1.05,3.77.91,7.61-.35,11.45-1.47,4.82-4.33,8.36-8.66,10.77-4.54,2.26-9.71,3.54-15.37,3.69,5.31-4.74,9.57-10.02,12.85-15.82,1.12-2.11,1.75-4.44,1.96-6.93.21-1.66-.07-3.46-.77-5.12-.63-1.73-1.75-2.79-3.21-3.39-2.79-1.21-5.66-1.05-8.52.45-6.01,2.71-11.67,5.95-16.97,9.72-.63,4.59-.63,9.42.07,14.46.35,2.41.07,4.75-.84,6.93-.21.53-.56.83-1.05.83-.42.15-.91.08-1.26-.15-1.54-.98-2.51-2.26-3.07-3.77-1.47-4.07-2.24-8.06-2.31-11.82l-1.82,1.58c-.63.45-1.33.6-2.17.38l-1.05-.3c-.7-.3-1.4-.9-1.89-1.66-.91-1.58-1.61-3.09-2.24-4.59-.56-1.81-.21-3.54.91-5.05,3.35-3.84,6.22-7.83,8.66-11.9-.98.38-2.17,1.05-3.49,1.96-1.12.68-2.24.75-3.35.23-.98-.3-1.75-1.05-2.31-2.18,3.07-4.74,6.92-8.28,11.67-10.69v-.02Z"/>
    <path d="M25.27,48.02c-.94.73-1.95.94-2.99.61-1.14-.37-2.1-1.04-2.92-2.01-.35-.4-.44-.88-.3-1.46l.3-.82c.2-.27.44-.37.77-.21.59.37,1.19.46,1.85.33l7.73-2.07c.96-.3,1.93-.46,2.94-.52,0-1.07-.07-2.13-.2-3.17l-.25-.18c-.15-.18-.27-.37-.37-.64-.05-.33,0-.64.15-.91.37-.43.74-.73,1.21-.88.42-.12.74-.03,1.06.27.27.21.47.52.59.82.15.27.22.61.22.94.12,1.28.17,2.47.15,3.59.32-.03.64.03.99.18.15.03.3,0,.42-.09l.37-.3c.22-.15.42-.18.59-.06.72.55,1.41,1.25,2.1,2.1.17.21.25.55.2.94-.05.15-.12.33-.25.52-.3.37-.62.46-.96.3-.07,0-.17-.06-.35-.15-.17-.09-.27-.15-.35-.21-.12-.09-.25-.15-.47-.15-.52-.09-1.21-.15-2.05-.18.05,2.74-.02,5.45-.2,8.13-.15,1.28-.49,2.44-1.04,3.47-.22.4-.49.73-.79.97-.35,1.71-1.11,3.2-2.3,4.45-.07-1.83-.02-3.38.12-4.78-1.21-.55-2.27-1.37-3.16-2.5-.42-.46-.64-.97-.77-1.61-.3-1.31-.35-2.62-.12-3.9.02-.21.15-.43.3-.61.2-.18.42-.24.67-.15,1.51.09,2.79.73,3.88,1.95.27-1.8.47-3.53.57-5.15-2.64.43-5.11,1.46-7.36,3.14h.02ZM28.48,50.28s-.02.03-.02.06c.32,1.46,1.11,2.41,2.3,2.86.02,0,.05-.03.07-.09.02-.03.05-.03.02-.06-.4-1.4-1.21-2.31-2.32-2.8-.02-.03-.02,0-.05.03ZM35.74,37.21c.32.12.57.24.74.33.3-.15.59-.37.89-.67.05-.09.1-.18.12-.3l.02-.3c0-.12.05-.24.15-.37.12-.09.25-.09.32-.06.22.03.42.12.54.3.74.64,1.31,1.49,1.63,2.59.1.27.07.55-.07.73-.07.21-.25.37-.44.4-.22.12-.4.06-.57-.21-.49-.46-.94-1.04-1.26-1.68-.02-.03-.05-.06-.07-.06s-.07,0-.1.03l-.15.49c.22.4.37.79.47,1.22.05.27.05.58-.02.88-.02.37-.15.58-.4.61-.2.15-.42.09-.64-.12-.72-.79-1.28-1.74-1.73-2.89-.07-.27-.12-.52-.12-.73.25-.18.49-.24.69-.18h0Z"/>
  </g>
</svg>