<?xml version="1.0" encoding="UTF-8"?>
<svg id="_レイヤー_1" data-name="レイヤー 1" xmlns="http://www.w3.org/2000/svg" viewBox="0 0 205.46 115.41">
  <g>
    <g>
      <path d="M76.5,105.44c-.18-.03-.32-.04-.62-.05-.01.14-.02.28-.03.54.12,0,.4.15.51.25.15.13.15.36.05.49-.13.03-.23-.04-.31-.19-.06-.12-.19-.32-.25-.44-.02.85-.01,2.12,0,2.69-.1.07-.31.01-.43-.1,0-.49,0-1.53.03-2.24-.2.37-.35.62-.44.75-.18.26-.36.47-.56.63.33-.75.71-1.6.9-2.35-.15,0-.53.06-.61.09,0,0-.2-.02-.16-.19.02-.09.15-.14.37-.18.15-.02.37-.04.48-.05,0-.27.01-.76.06-1.17.05-.01.12-.02.16-.02.19,0,.32.13.29.39-.02.21-.03.5-.05.79,0,0,.33.01.39.02.17.03.25.09.25.19,0,.04-.03.14-.03.14ZM79.26,107.82c-.34-.3-.65-.77-.94-1.39-.01.61.03,1.66.04,2.27-.08.04-.14.05-.2.05-.19,0-.28-.13-.29-.38-.01-.37,0-1.65,0-1.65-.12.2-.26.46-.42.62-.27.27-.96.65-1.2.61.5-.36,1.1-1.02,1.34-1.62-.19-.01-.51.05-.7.09-.16.03-.25-.15-.25-.31.29-.06.64-.09,1.2-.13,0-.22,0-.56.01-.79-.13,0-.36.01-.48.04l-.09-.13c-.22.35-.42.58-.61.69.15-.51.32-1.02.37-1.55.12-.05.38.06.42.18-.02.14-.06.33-.12.48.15,0,.36-.03.51-.02,0-.27.04-.77.09-1.02.2,0,.37.06.47.18-.06.27-.08.66-.08.82.16,0,.35.01.47.03.18.04.26.13.23.29-.04.04-.09.08-.14.06-.14-.04-.39-.06-.57-.06l-.02.79c.42,0,.86.02,1.11.1.04.06.03.18-.02.28-.25-.03-.58-.07-1.01-.08.23.34.67.75,1.32,1.22-.18.1-.37.23-.47.33Z"/>
      <path d="M84.87,108.79c-.95-.3-1.4-2.31-1.54-3.58-.67.02-1.44.12-1.85.19-.33.06-.53.11-.59.11-.19,0-.32-.09-.38-.27.11-.12.3-.16.44-.18.47-.08,1.67-.2,2.36-.2-.03-.4-.05-.96.06-1.19.16-.04.43.04.48.14-.01.24-.02.61.02,1.05.33,0,.95.03,1.23.12,0,0,.1.1.07.19-.02.07-.09.15-.29.12-.35-.04-.57-.07-.99-.08.08,1.04.34,2.14.88,2.79.27-.19.41-.72.41-.72.08.32-.07,1.34-.31,1.52ZM81.19,108.54c-.22-.02-.32-.37-.26-.57.27-.04.55-.09.85-.18-.06-.34-.07-.74-.03-1.17-.24.05-.37.09-.49.1-.19,0-.29-.23-.27-.35.54-.13,1.29-.23,1.88-.18.11.07.15.27.02.39-.23-.03-.51-.02-.79,0l.23.16c-.04.28-.04.61-.01.9.35-.08.91-.31.91-.31-.25.58-1.43,1.09-2.02,1.22ZM84.6,104.57c-.27-.01-.35-.48-.45-.64,0,0,.63.04.68.37.02.14-.08.27-.23.27Z"/>
      <path d="M79.7,112.44c-.12.13-.22.29-.41.29-.12,0-.2-.05-.3-.11-.57-.37-1.47-1.44-1.91-1.98-.38.65-1.51,1.65-2.19,1.99-.18.06-.36.13-.56.16.05-.08.12-.16.23-.25.74-.65,1.8-1.78,2.24-2.65.15.05.25.12.31.22.06.09.07.23.03.33.47.53,2.16,1.77,2.72,1.89-.04.06-.1.08-.17.11ZM78.69,113.54c-.63-.06-1.2-.12-1.89-.09.08.09.11.2.11.32,0,.1-.05.25-.13.46-.1.22-.15.37-.16.48.26.02.51-.09.78-.09.15,0,.24.04.32.12.04-.16.04-.32-.02-.49.19-.08.33-.05.43.05.12.11.18.31.18.51,0,.23-.09.6-.39.6-.12,0-.22-.16-.2-.51-.28.11-.7.17-1.13.3-.1.1-.22.09-.31.04-.11-.06-.18-.2-.18-.33.02-.36.29-1.08.42-1.43-.3.03-.55.06-1.04.19-.12-.02-.23-.1-.27-.2,0-.13.08-.22.2-.27.91-.16,1.85-.13,2.76-.13.23,0,.61,0,.68.28.02.1-.02.18-.15.2ZM78.01,112.4c-.46-.06-1.36-.05-1.85.15-.19-.1-.26-.23-.23-.44.37-.16,1.55-.23,1.96-.12.16.05.25.16.25.34,0,.05-.07.08-.13.08Z"/>
      <path d="M81.85,112.62s.12.07.13.16c-.03.59-.01,1.48.02,2.09-.05.12-.17.24-.34.24-.09-.09-.16-.23-.18-.44-.04-.58-.03-1.16,0-1.7-.43.32-.9.52-1.2.6,0,0,1.44-1.22,1.87-2.09-.34-.13-1.07-.03-1.43.1-.09-.04-.28-.16-.27-.29,0-.08.1-.14.29-.18.21-.05.56-.07.83-.08,0-.27-.05-.58.01-.86.18-.04.43.04.48.23.03.12-.03.41-.05.64.4.06.67.19.8.39-.16.36-.65.92-.96,1.19ZM82.1,112.69s.17-.08.33-.06c.2.02.34.15.3.38-.24.19-.65.01-.63-.32ZM85.21,114.83c-.65-.13-1.72-.2-2.74.02-.13-.03-.22-.13-.21-.34.18-.09.84-.16,1.3-.18.01-.41.03-1.62.05-2.17-.25.02-.41.06-.58.1-.12-.03-.2-.13-.16-.28.02-.08.08-.13.17-.15.15-.03.36-.06.58-.08.02-.47.04-1.09.13-1.29.17-.02.32.04.47.19,0,0,0,.66-.01,1.08.26.01.47.04.63.11.12.05.19.14.16.26-.02.09-.12.12-.28.11-.14-.01-.28-.07-.52-.08-.02.69-.07,2.2-.07,2.2.34.01.7.05.92.11.15.04.23.12.26.25-.01.12-.1.15-.1.15Z"/>
    </g>
    <g>
      <path d="M96.62,112.73c-.44.31-1.3.42-1.75.48l1.45-1.1c.36-.72.6-1.61.5-2.77-.05-.53-.13-1.61-.58-1.85-.3-.17-.82-.12-1.16-.06-1.22.22-2.41,1.18-3.06,1.91.01,1.08.16,2.88.04,4.39l-.37.14c-.44-.4-.77-1-1-1.55l-.44-.44,1.08.44c0-.48.01-1.85-.01-2.39-.6.67-1.32,1.67-1.69,2.17-.23-.02-.41-.4-.52-.59.55-.79,1.51-1.97,2.16-2.71,0,0,.05-.91.05-1.34-.37-.04-.89.36-1.34.26-.42-.08-.65-.7-.37-1.03l.43.2c.3-.04.86-.12,1.32-.13.02-.42.04-1.13,0-1.61l-.18-.67c.25-.29,1,.04,1.13.42-.07.49-.23,1.07-.28,1.65.2.07.47.2.62.37-.29.31-.62.88-.62,1.61.59-.65,1.72-1.56,2.78-1.81.82-.19,1.92.12,2.39.83.94,1.43.76,4.22-.58,5.17Z"/>
      <path d="M106.91,107.3c0,.82-.23,2.28-.23,2.28.07.32.14.86.16,1.28.02,1.39-1.26,2.33-2.46,2.73-.49.17-1.26.4-1.67.23,1.74-.83,3.06-1.62,3.26-2.85,0,0-.37.26-.77.4-.8.26-1.71-.13-1.97-.67-.01-1.26.97-2.16,2-2.11.23.01.47.07.7.18.06-.37.05-1.06.04-1.36-1.02.04-3.8.29-4.53-.13,0,0,.2-.6.58-.64.96.04,3.15.02,3.96,0,0-.61.06-1.67-.37-2.16.19-.3.96-.35,1.09-.17.29.4.25,1.44.22,2.25.53-.04,1.5-.13,1.99-.17.37-.02.55.67.55.67-.65.1-2.03.2-2.54.23ZM104.98,109.3c-.37.11-.56.5-.56.88,0,.44.28.84.86.62.41-.16.55-.84.53-1.3-.23-.25-.62-.26-.83-.2ZM108.87,105.67c-.17-.3-.34-.89-.49-1.2.36-.1.8.24.97.56.14.29.04.62-.48.64ZM110.43,105.28c-.4-.07-.65-.74-.85-1.1.49-.04,1.01.17,1.13.68.04.17-.13.38-.28.42Z"/>
      <path d="M119.39,113.94c-.38,0-.62-.53-.84-.8-.58-.74-1.63-1.65-2.47-2.34-.44-.36-.9-.62-1.39-.73-.13-.17-.18-.41-.1-.73.08-.31.76-.85,1.07-1.2.9-.97,1.87-1.99,2.65-3.03.14-.18.54-.83.54-.83.48.13.66.62.7.9-1.06,1.35-3.02,3.19-4.16,4.37.96.65,2.28,1.4,3.23,2.22.32.28.97.86,1.18,1.16.19.29-.06,1.02-.4,1.02Z"/>
      <path d="M130.81,113.35c-.68.22-1.4.35-2.22.23,0,0,1.49-.55,2.22-.95.65-.36,1.54-1.08,1.54-2.06,0-.48-.13-.89-.49-1.13-.65-.18-1.3-.13-1.9.05-1.02.3-1.75.91-2.58,1.54-.31-.3-.68-.91-.68-.91-.1-.88.01-2.79.24-3.59.41-.1.72.07.95.32-.19.94-.38,1.86-.3,2.96.79-.38,1.6-.78,2.78-.94,1.34-.18,2.99.23,2.96,1.7-.02,1.57-1.14,2.33-2.52,2.77ZM129.09,106.36l.5-.42c-.62-.18-1.44-.42-1.49-1.31l.11-.1c.55.48,1.45.64,2.46.67.13.17.29.43.23.6-.44.26-1.21.48-1.81.55Z"/>
      <path d="M144.03,113.16c-.44.3-1.43.65-2.15.65-1.03,0-1.73-.4-2.1-1.08-.46-.83-.54-2.05-.48-3.35.05-1.03.18-2.06.24-3.09.05-.72-.04-1.58-.11-2.04l.76.14c.64.43.47,1.07.32,2.09-.19,1.38-.41,2.94-.4,4.43.01,1.09.2,2.29,1.61,2.29.97,0,1.9-.78,2.29-1.49.3-.54.43-1.15.43-1.76,0-.83-.3-1.63-.3-1.63.67.53,1.06,1.38,1.07,2.24.01,1.04-.46,2.1-1.19,2.6Z"/>
      <path d="M151.02,110.6c-.61-.85-.48-4.2-.18-5.11.3.07.89.28.89.28-.08,1.07-.18,2.95.07,4.4-.14.17-.78.43-.78.43ZM156.34,105.76c-.01,2.76-.53,4.77-1.13,6.19-.36.86-.94,1.49-1.61,1.92.44-1.3,1.01-2.66,1.28-4.29.2-1.21.31-2.87.3-3.91l1.15.1Z"/>
      <path d="M163.29,113.59l.82-.96c1.33-1.57,3.03-3.92,3.74-6.03-1.34-.18-3.74-.07-5.25.34-.16-.11-.41-.47-.37-.78,1.01-.41,5.66-.7,7.03-.02-.86,2.95-4.05,7.1-5.96,7.46Z"/>
      <path d="M178.9,108.86c-.01.85.01,2.37-.08,3.42-.05.54-.25,1.08-.74,1.24-.18-.4-.5-.68-.95-.88l.84-.05c.16-.96.12-2.61.11-2.89-.56.96-2,2.21-3.07,2.49l.34-.42c.82-.83,1.73-1.98,2.43-2.9-.94.02-2.63.22-3.29.35-.16-.17-.14-.68-.14-.68.76-.11,2.73-.25,3.71-.26-.01-.58-.06-1.4-.04-1.86.25.01.53,0,.77.11.07.47.11,1.22.11,1.71.47.01.97.01,1.44.1.31.06.32.29.17.6-.53-.05-1.03-.08-1.6-.07Z"/>
      <path d="M186.4,109.26c-.1-.01-.46.19-.46.19-.31-.16-.47-.83-.32-1.15,2.35-.29,5.41-.26,7.84,0,.23.34.3.71,0,.89-1.46-.04-5.79-.16-7.06.07Z"/>
      <path d="M204.81,112.95c-.25-.43-.6-1.27-.8-1.83-1.25.64-3.56,1.38-5.42,1.6l-.64-.6c.94-2.18,1.73-4.51,2.57-6.79.24.1.68.16.98.28-.14,1.22-1.62,4.77-2.91,6.06,0,0,.8-.08,1.24-.14,1.34-.18,2.83-.35,4.13-.56-.25-.62-.65-1.45-.84-2.29.85.47,2.15,2.43,2.34,3.43.11.55-.43,1.21-.64.86Z"/>
    </g>
  </g>
  <path d="M12.35,16.35l1.05-5.27c.21-.9.21-1.81-.07-2.49l-.63-1.81c-.49-1.36-.42-2.64.07-4.07l1.33-2.03c.49-.6,1.12-.83,1.75-.6,3.49,1.51,6.36,3.99,8.52,7.31.91,1.36,1.12,3.01.63,4.75-.49,1.66-1.05,3.01-1.82,4.22,1.26,1.36,2.51,3.01,3.56,4.97.21.68.28,1.28.07,1.88-.21.53-.49.98-.98,1.36-2.38,1.21-4.19,2.71-5.24,4.75,4.54-2.03,9.43-3.39,14.53-4.22,3.98-.68,7.96-.38,11.88.9,2.65.75,4.89,2.33,6.64,4.59,1.61,2.03,2.72,4.29,3.28,6.7,1.05,3.77.91,7.61-.35,11.45-1.47,4.82-4.33,8.36-8.66,10.77-4.54,2.26-9.71,3.54-15.37,3.69,5.31-4.74,9.57-10.02,12.85-15.82,1.12-2.11,1.75-4.44,1.96-6.93.21-1.66-.07-3.46-.77-5.12-.63-1.73-1.75-2.79-3.21-3.39-2.79-1.21-5.66-1.05-8.52.45-6.01,2.71-11.67,5.95-16.97,9.72-.63,4.59-.63,9.42.07,14.46.35,2.41.07,4.75-.84,6.93-.21.53-.56.83-1.05.83-.42.15-.91.08-1.26-.15-1.54-.98-2.51-2.26-3.07-3.77-1.47-4.07-2.24-8.06-2.31-11.82l-1.82,1.58c-.63.45-1.33.6-2.17.38l-1.05-.3c-.7-.3-1.4-.9-1.89-1.66-.91-1.58-1.61-3.09-2.24-4.59-.56-1.81-.21-3.54.91-5.05,3.35-3.84,6.22-7.83,8.66-11.9-.98.38-2.17,1.05-3.49,1.96-1.12.68-2.24.75-3.35.23-.98-.3-1.75-1.05-2.31-2.18,3.07-4.74,6.92-8.28,11.67-10.69Z"/>
  <path d="M25.26,48.01c-.94.73-1.95.94-2.99.61-1.14-.37-2.1-1.04-2.92-2.01-.35-.4-.44-.88-.3-1.46l.3-.82c.2-.27.44-.37.77-.21.59.37,1.19.46,1.85.33l7.73-2.07c.96-.3,1.93-.46,2.94-.52,0-1.07-.07-2.13-.2-3.17l-.25-.18c-.15-.18-.27-.37-.37-.64-.05-.33,0-.64.15-.91.37-.43.74-.73,1.21-.88.42-.12.74-.03,1.06.27.27.21.47.52.59.82.15.27.22.61.22.94.12,1.28.17,2.47.15,3.59.32-.03.64.03.99.18.15.03.3,0,.42-.09l.37-.3c.22-.15.42-.18.59-.06.72.55,1.41,1.25,2.1,2.1.17.21.25.55.2.94-.05.15-.12.33-.25.52-.3.37-.62.46-.96.3-.07,0-.17-.06-.35-.15-.17-.09-.27-.15-.35-.21-.12-.09-.25-.15-.47-.15-.52-.09-1.21-.15-2.05-.18.05,2.74-.02,5.45-.2,8.13-.15,1.28-.49,2.44-1.04,3.47-.22.4-.49.73-.79.97-.35,1.71-1.11,3.2-2.3,4.45-.07-1.83-.02-3.38.12-4.78-1.21-.55-2.27-1.37-3.16-2.5-.42-.46-.64-.97-.77-1.61-.3-1.31-.35-2.62-.12-3.9.02-.21.15-.43.3-.61.2-.18.42-.24.67-.15,1.51.09,2.79.73,3.88,1.95.27-1.8.47-3.53.57-5.15-2.64.43-5.11,1.46-7.36,3.14ZM28.47,50.27s-.02.03-.02.06c.32,1.46,1.11,2.41,2.3,2.86.02,0,.05-.03.07-.09.02-.03.05-.03.02-.06-.4-1.4-1.21-2.31-2.32-2.8-.02-.03-.02,0-.05.03ZM35.73,37.2c.32.12.57.24.74.33.3-.15.59-.37.89-.67.05-.09.1-.18.12-.3l.02-.3c0-.12.05-.24.15-.37.12-.09.25-.09.32-.06.22.03.42.12.54.3.74.64,1.31,1.49,1.63,2.59.1.27.07.55-.07.73-.07.21-.25.37-.44.4-.22.12-.4.06-.57-.21-.49-.46-.94-1.04-1.26-1.68-.02-.03-.05-.06-.07-.06s-.07,0-.1.03l-.15.49c.22.4.37.79.47,1.22.05.27.05.58-.02.88-.02.37-.15.58-.4.61-.2.15-.42.09-.64-.12-.72-.79-1.28-1.74-1.73-2.89-.07-.27-.12-.52-.12-.73.25-.18.49-.24.69-.18Z"/>
</svg>