<svg width="75" height="75" viewBox="0 0 75 75" fill="none" xmlns="http://www.w3.org/2000/svg">
<path d="M6.25 68.7499V27.6562C6.25 23.2292 7.39583 19.3885 9.68749 16.1344C11.9792 12.8802 15.2083 10.4188 19.375 8.75002C22.1875 7.65627 25.1823 6.96669 28.3593 6.68127C31.5364 6.39586 34.5833 6.25211 37.5 6.25002C40.4166 6.24794 43.4635 6.39169 46.6406 6.68127C49.8176 6.97085 52.8124 7.66044 55.6249 8.75002C59.7916 10.4167 63.0208 12.8781 65.3124 16.1344C67.6041 19.3906 68.7499 23.2313 68.7499 27.6562V68.7499H6.25ZM28.4375 62.4999L33.125 57.8125H41.7187L46.4062 62.4999H51.5624V60.9375L48.2812 57.6562C50.5729 57.3437 52.4739 56.3156 53.9843 54.5718C55.4947 52.8281 56.2499 50.7833 56.2499 48.4375V28.125C56.2499 24.0625 54.427 21.4844 50.7812 20.3906C47.1354 19.2969 42.7083 18.75 37.5 18.75C32.7604 18.75 28.451 19.2969 24.5718 20.3906C20.6927 21.4844 18.7521 24.0625 18.75 28.125V48.4375C18.75 50.7812 19.5052 52.826 21.0156 54.5718C22.526 56.3177 24.4271 57.3458 26.7187 57.6562L23.4375 60.9375V62.4999H28.4375ZM23.4375 40.625V28.125H51.5624V40.625H23.4375ZM48.4374 51.5625C47.552 51.5625 46.8104 51.2625 46.2124 50.6625C45.6145 50.0625 45.3145 49.3208 45.3124 48.4375C45.3104 47.5541 45.6104 46.8125 46.2124 46.2125C46.8145 45.6125 47.5562 45.3125 48.4374 45.3125C49.3187 45.3125 50.0614 45.6125 50.6656 46.2125C51.2697 46.8125 51.5687 47.5541 51.5624 48.4375C51.5562 49.3208 51.2562 50.0635 50.6624 50.6656C50.0687 51.2677 49.327 51.5666 48.4374 51.5625ZM26.5625 51.5625C25.6771 51.5625 24.9354 51.2625 24.3375 50.6625C23.7396 50.0625 23.4396 49.3208 23.4375 48.4375C23.4354 47.5541 23.7354 46.8125 24.3375 46.2125C24.9396 45.6125 25.6812 45.3125 26.5625 45.3125C27.4437 45.3125 28.1864 45.6125 28.7906 46.2125C29.3948 46.8125 29.6937 47.5541 29.6875 48.4375C29.6812 49.3208 29.3812 50.0635 28.7875 50.6656C28.1937 51.2677 27.4521 51.5666 26.5625 51.5625Z" fill="black"/>
</svg>
